<svg height="200pt" preserveAspectRatio="xMidYMid meet" viewBox="0 0 500 500" width="200pt" xmlns="http://www.w3.org/2000/svg"><g transform="matrix(.1 0 0 -.1 0 500)"><path d="m2238 4550c-243-51-434-148-618-313-77-70-213-248-262-342-115-224-160-404-162-635-1-141 2-164 27-255 98-352 321-766 715-1326 89-127 258-352 352-467 41-51 86-108 100-126 14-17 36-45 48-61l24-30 20 25c11 14 42 52 69 85 119 143 324 414 447 590 170 244 209 302 371 568 98 162 237 452 283 592 72 218 81 273 75 439-10 257-87 503-219 700-63 93-153 201-204 243-25 21-62 52-82 69-139 116-323 200-536 244-128 26-324 26-448 0zm388-551c91-28 135-51 219-114 162-120 258-322 258-540 0-118-18-196-72-310-105-223-327-366-566-366-356 1-645 303-645 676 0 300 195 570 470 652 103 30 242 31 336 2z"/><path d="m2338 3791c-197-65-328-249-328-461 1-232 165-432 390-472 205-36 424 109 492 325 26 85 26 210-1 298-42 135-126 230-256 291-89 41-207 49-297 19z"/><path d="m1945 1219c-275-19-641-71-830-119-215-54-404-144-446-214-21-35-25-96-8-129 19-35 70-90 108-116 174-120 611-195 1281-222 587-23 1101 7 1575 92 282 50 505 131 610 222 38 33 40 38 40 90 0 45-5 60-24 81-61 64-240 146-431 195-111 28-419 79-605 100-172 19-459 34-462 24-2-6-19-34-38-64l-34-54 62-7c34-3 161-11 281-18 485-25 928-103 1046-185 150-104-9-200-455-275-327-54-643-74-1190-73-573 0-919 20-1185 69-274 49-418 129-396 218 30 120 529 225 1218 254 92 4 170 10 173 14 3 3-9 33-27 67l-33 61-55-2c-30 0-109-5-175-9z"/></g></svg>